<?xml version="1.0" standalone="no"?>
<!DOCTYPE svg PUBLIC "-//W3C//DTD SVG 20010904//EN"
 "http://www.w3.org/TR/2001/REC-SVG-20010904/DTD/svg10.dtd">
<svg version="1.0" xmlns="http://www.w3.org/2000/svg"
 width="90.000000pt" height="90.000000pt" viewBox="0 0 90.000000 90.000000"
 preserveAspectRatio="xMidYMid meet">

<g transform="translate(0.000000,90.000000) scale(0.100000,-0.100000)"
fill="#000000" stroke="none">
<path d="M761 789 c-24 -5 -45 -10 -47 -12 -2 -1 3 -25 10 -52 12 -47 15 -50
42 -47 72 6 74 8 74 67 0 61 2 60 -79 44z"/>
<path d="M603 763 c-37 -5 -39 -15 -22 -75 8 -31 15 -38 35 -38 31 0 38 18 26
63 -7 24 -6 39 1 46 6 6 7 10 2 9 -6 0 -25 -3 -42 -5z"/>
<path d="M428 733 c-32 -5 -32 -7 -17 -70 l12 -45 41 6 c22 4 41 8 43 9 1 2
-4 25 -11 52 -13 51 -19 56 -68 48z"/>
<path d="M272 701 c-12 -7 -12 -16 0 -57 12 -43 17 -49 38 -46 14 2 26 5 28 7
2 2 -2 25 -10 52 -14 47 -31 61 -56 44z"/>
<path d="M145 683 c-70 -13 -65 -3 -65 -123 0 -67 4 -110 10 -110 6 0 10 -62
10 -166 l0 -166 29 -29 29 -29 302 0 302 0 29 29 29 29 0 166 c0 104 4 166 10
166 6 0 10 25 10 55 l0 55 -44 0 c-43 0 -45 -1 -62 -45 -9 -25 -22 -45 -29
-45 -7 0 -26 -3 -43 -6 l-31 -6 19 51 20 51 -34 0 c-31 0 -36 -4 -52 -45 -9
-25 -22 -45 -29 -45 -7 0 -26 -3 -43 -6 l-31 -6 19 51 20 51 -39 0 c-37 0 -40
-2 -57 -45 -9 -25 -22 -45 -29 -45 -7 0 -26 -3 -43 -6 l-31 -6 19 51 20 51
-34 0 c-31 0 -36 -4 -52 -45 -9 -25 -22 -45 -29 -45 -7 0 -26 -3 -43 -6 l-31
-6 19 51 20 51 -48 1 -47 1 38 8 c20 4 40 9 43 12 6 7 -16 97 -25 101 -3 2
-15 2 -26 0z m328 -358 c37 -21 67 -42 67 -45 0 -8 -151 -82 -157 -76 -7 7 9
167 16 164 4 -2 37 -21 74 -43z"/>
</g>
</svg>
